<svg width="207" height="47" viewBox="0 0 207 47" fill="none" xmlns="http://www.w3.org/2000/svg">
<path d="M97.5117 0.78125V15H94.084V0.78125H97.5117ZM101.789 0.78125V3.42773H89.9043V0.78125H101.789Z" fill="black"/>
<path d="M85.4316 11.2207C85.4316 10.9993 85.3991 10.8008 85.334 10.625C85.2689 10.4427 85.1484 10.2734 84.9727 10.1172C84.7969 9.96094 84.543 9.80469 84.2109 9.64844C83.8854 9.48568 83.4557 9.31641 82.9219 9.14062C82.2969 8.93229 81.6947 8.69792 81.1152 8.4375C80.5358 8.17057 80.0182 7.86133 79.5625 7.50977C79.1068 7.15169 78.7454 6.73503 78.4785 6.25977C78.2116 5.77799 78.0781 5.2181 78.0781 4.58008C78.0781 3.9681 78.2148 3.41797 78.4883 2.92969C78.7617 2.4349 79.1426 2.01497 79.6309 1.66992C80.1257 1.31836 80.7051 1.05143 81.3691 0.869141C82.0332 0.680339 82.7591 0.585938 83.5469 0.585938C84.5885 0.585938 85.5065 0.768229 86.3008 1.13281C87.1016 1.49089 87.7266 2.00195 88.1758 2.66602C88.6315 3.32357 88.8594 4.10156 88.8594 5H85.4512C85.4512 4.64193 85.3763 4.32617 85.2266 4.05273C85.0833 3.7793 84.8652 3.56445 84.5723 3.4082C84.2793 3.25195 83.9115 3.17383 83.4688 3.17383C83.0391 3.17383 82.6777 3.23893 82.3848 3.36914C82.0918 3.49935 81.8704 3.67513 81.7207 3.89648C81.571 4.11133 81.4961 4.34896 81.4961 4.60938C81.4961 4.82422 81.5547 5.01953 81.6719 5.19531C81.7956 5.36458 81.9681 5.52409 82.1895 5.67383C82.4173 5.82357 82.6908 5.9668 83.0098 6.10352C83.3353 6.24023 83.6999 6.3737 84.1035 6.50391C84.8587 6.74479 85.5293 7.01497 86.1152 7.31445C86.7077 7.60742 87.2057 7.94271 87.6094 8.32031C88.0195 8.69141 88.3288 9.11458 88.5371 9.58984C88.752 10.0651 88.8594 10.6022 88.8594 11.2012C88.8594 11.8392 88.7357 12.4056 88.4883 12.9004C88.2409 13.3952 87.8861 13.8151 87.4238 14.1602C86.9616 14.4987 86.4082 14.7559 85.7637 14.9316C85.1191 15.1074 84.3997 15.1953 83.6055 15.1953C82.8763 15.1953 82.1569 15.1042 81.4473 14.9219C80.7441 14.7331 80.1061 14.4466 79.5332 14.0625C78.9603 13.6719 78.5013 13.1738 78.1562 12.5684C77.8177 11.9564 77.6484 11.2305 77.6484 10.3906H81.0859C81.0859 10.8073 81.1413 11.1589 81.252 11.4453C81.3626 11.7318 81.5254 11.9629 81.7402 12.1387C81.9551 12.3079 82.2188 12.4316 82.5312 12.5098C82.8438 12.5814 83.2018 12.6172 83.6055 12.6172C84.0417 12.6172 84.3932 12.5553 84.6602 12.4316C84.9271 12.3014 85.1224 12.1322 85.2461 11.9238C85.3698 11.709 85.4316 11.4746 85.4316 11.2207Z" fill="black"/>
<path d="M76.3301 7.60742V8.18359C76.3301 9.27083 76.1771 10.2474 75.8711 11.1133C75.5716 11.9727 75.1452 12.7083 74.5918 13.3203C74.0384 13.9258 73.3841 14.3913 72.6289 14.7168C71.8737 15.0358 71.0404 15.1953 70.1289 15.1953C69.2109 15.1953 68.3711 15.0358 67.6094 14.7168C66.8542 14.3913 66.1966 13.9258 65.6367 13.3203C65.0833 12.7083 64.6536 11.9727 64.3477 11.1133C64.0482 10.2474 63.8984 9.27083 63.8984 8.18359V7.60742C63.8984 6.52018 64.0482 5.54362 64.3477 4.67773C64.6536 3.81185 65.0801 3.07617 65.627 2.4707C66.1803 1.85872 66.8346 1.39323 67.5898 1.07422C68.3516 0.748698 69.1914 0.585938 70.1094 0.585938C71.0208 0.585938 71.8542 0.748698 72.6094 1.07422C73.3711 1.39323 74.0286 1.85872 74.582 2.4707C75.1354 3.07617 75.5651 3.81185 75.8711 4.67773C76.1771 5.54362 76.3301 6.52018 76.3301 7.60742ZM72.8535 8.18359V7.58789C72.8535 6.88477 72.7917 6.26628 72.668 5.73242C72.5508 5.19206 72.375 4.73958 72.1406 4.375C71.9062 4.01042 71.6165 3.73698 71.2715 3.55469C70.9329 3.36589 70.5456 3.27148 70.1094 3.27148C69.6536 3.27148 69.2565 3.36589 68.918 3.55469C68.5794 3.73698 68.2962 4.01042 68.0684 4.375C67.8405 4.73958 67.668 5.19206 67.5508 5.73242C67.4401 6.26628 67.3848 6.88477 67.3848 7.58789V8.18359C67.3848 8.88021 67.4401 9.4987 67.5508 10.0391C67.668 10.5729 67.8405 11.0254 68.0684 11.3965C68.3027 11.7676 68.5892 12.0475 68.9277 12.2363C69.2728 12.4251 69.6732 12.5195 70.1289 12.5195C70.5651 12.5195 70.9525 12.4251 71.291 12.2363C71.6296 12.0475 71.9128 11.7676 72.1406 11.3965C72.375 11.0254 72.5508 10.5729 72.668 10.0391C72.7917 9.4987 72.8535 8.88021 72.8535 8.18359Z" fill="black"/>
<path d="M63.4785 12.3633V15H56.291V12.3633H63.4785ZM57.5117 0.78125V15H54.084V0.78125H57.5117Z" fill="black"/>
<path d="M193.642 44V23.6364H205.931V25.8239H196.107V32.7045H205.295V34.8921H196.107V41.8125H206.09V44H193.642Z" fill="#4078E1"/>
<path d="M187.733 30C187.515 29.3305 187.226 28.7306 186.868 28.2003C186.517 27.6634 186.096 27.206 185.606 26.8281C185.122 26.4503 184.571 26.1619 183.955 25.9631C183.339 25.7642 182.662 25.6648 181.927 25.6648C180.72 25.6648 179.623 25.9763 178.635 26.5994C177.648 27.2225 176.862 28.1406 176.279 29.3537C175.696 30.5668 175.404 32.0549 175.404 33.8182C175.404 35.5814 175.699 37.0696 176.289 38.2827C176.879 39.4957 177.678 40.4138 178.685 41.0369C179.693 41.66 180.826 41.9716 182.086 41.9716C183.252 41.9716 184.28 41.723 185.168 41.2259C186.063 40.7221 186.759 40.0128 187.256 39.098C187.76 38.1766 188.012 37.0928 188.012 35.8466L188.767 36.0057H182.642V33.8182H190.398V36.0057C190.398 37.6828 190.04 39.1411 189.324 40.3807C188.615 41.6203 187.634 42.5814 186.381 43.2642C185.135 43.9403 183.703 44.2784 182.086 44.2784C180.283 44.2784 178.698 43.8542 177.333 43.0057C175.974 42.1572 174.913 40.9508 174.151 39.3864C173.395 37.822 173.017 35.9659 173.017 33.8182C173.017 32.2074 173.233 30.759 173.664 29.473C174.101 28.1804 174.718 27.08 175.513 26.1719C176.309 25.2637 177.25 24.5677 178.337 24.0838C179.424 23.5999 180.621 23.358 181.927 23.358C183 23.358 184.001 23.5204 184.929 23.8452C185.864 24.1634 186.696 24.6174 187.425 25.2074C188.161 25.7907 188.774 26.4901 189.265 27.3054C189.755 28.1141 190.093 29.0123 190.279 30H187.733Z" fill="#4078E1"/>
<path d="M156.883 44V23.6364H163.763C165.354 23.6364 166.66 23.9081 167.681 24.4517C168.702 24.9886 169.458 25.7278 169.948 26.669C170.439 27.6103 170.684 28.6809 170.684 29.8807C170.684 31.0805 170.439 32.1444 169.948 33.0724C169.458 34.0005 168.705 34.7296 167.691 35.2599C166.677 35.7836 165.381 36.0455 163.803 36.0455H158.235V33.8182H163.724C164.811 33.8182 165.686 33.6591 166.349 33.3409C167.018 33.0227 167.502 32.572 167.8 31.9886C168.105 31.3987 168.258 30.696 168.258 29.8807C168.258 29.0653 168.105 28.3528 167.8 27.7429C167.495 27.1331 167.008 26.6624 166.339 26.331C165.669 25.9929 164.784 25.8239 163.684 25.8239H159.349V44H156.883ZM166.468 34.8523L171.479 44H168.616L163.684 34.8523H166.468Z" fill="#4078E1"/>
<path d="M141.128 44V23.6364H153.418V25.8239H143.594V32.7045H152.782V34.8921H143.594V41.8125H153.577V44H141.128Z" fill="#4078E1"/>
<path d="M137.164 23.6364V44H134.698V23.6364H137.164Z" fill="#4078E1"/>
<path d="M131.694 30H129.228C129.082 29.2907 128.827 28.6676 128.462 28.1307C128.104 27.5938 127.667 27.143 127.149 26.7784C126.639 26.4072 126.072 26.1288 125.449 25.9432C124.826 25.7576 124.176 25.6648 123.5 25.6648C122.267 25.6648 121.15 25.9763 120.149 26.5994C119.155 27.2225 118.363 28.1406 117.773 29.3537C117.19 30.5668 116.898 32.0549 116.898 33.8182C116.898 35.5814 117.19 37.0696 117.773 38.2827C118.363 39.4957 119.155 40.4138 120.149 41.0369C121.15 41.66 122.267 41.9716 123.5 41.9716C124.176 41.9716 124.826 41.8788 125.449 41.6932C126.072 41.5076 126.639 41.2325 127.149 40.8679C127.667 40.4967 128.104 40.0426 128.462 39.5057C128.827 38.9621 129.082 38.339 129.228 37.6364H131.694C131.508 38.6771 131.17 39.6084 130.679 40.4304C130.189 41.2524 129.579 41.9517 128.85 42.5284C128.121 43.0985 127.302 43.5327 126.394 43.831C125.492 44.1293 124.528 44.2784 123.5 44.2784C121.764 44.2784 120.219 43.8542 118.867 43.0057C117.515 42.1572 116.451 40.9508 115.675 39.3864C114.899 37.822 114.512 35.9659 114.512 33.8182C114.512 31.6705 114.899 29.8144 115.675 28.25C116.451 26.6856 117.515 25.4792 118.867 24.6307C120.219 23.7822 121.764 23.358 123.5 23.358C124.528 23.358 125.492 23.5071 126.394 23.8054C127.302 24.1037 128.121 24.5412 128.85 25.1179C129.579 25.688 130.189 26.384 130.679 27.206C131.17 28.0213 131.508 28.9527 131.694 30Z" fill="#4078E1"/>
<path d="M111.353 23.6364V44H108.966L97.8699 28.0114H97.671V44H95.2051V23.6364H97.5915L108.728 39.6648H108.927V23.6364H111.353Z" fill="#4078E1"/>
<path d="M92.0388 33.8182C92.0388 35.9659 91.651 37.822 90.8755 39.3864C90.0999 40.9508 89.036 42.1572 87.6837 43.0057C86.3314 43.8542 84.7869 44.2784 83.0502 44.2784C81.3134 44.2784 79.7689 43.8542 78.4167 43.0057C77.0644 42.1572 76.0005 40.9508 75.2249 39.3864C74.4493 37.822 74.0615 35.9659 74.0615 33.8182C74.0615 31.6705 74.4493 29.8144 75.2249 28.25C76.0005 26.6856 77.0644 25.4792 78.4167 24.6307C79.7689 23.7822 81.3134 23.358 83.0502 23.358C84.7869 23.358 86.3314 23.7822 87.6837 24.6307C89.036 25.4792 90.0999 26.6856 90.8755 28.25C91.651 29.8144 92.0388 31.6705 92.0388 33.8182ZM89.6525 33.8182C89.6525 32.0549 89.3575 30.5668 88.7675 29.3537C88.1842 28.1406 87.392 27.2225 86.3911 26.5994C85.3968 25.9763 84.2831 25.6648 83.0502 25.6648C81.8172 25.6648 80.7003 25.9763 79.6993 26.5994C78.705 27.2225 77.9129 28.1406 77.3229 29.3537C76.7396 30.5668 76.4479 32.0549 76.4479 33.8182C76.4479 35.5814 76.7396 37.0696 77.3229 38.2827C77.9129 39.4957 78.705 40.4138 79.6993 41.0369C80.7003 41.66 81.8172 41.9716 83.0502 41.9716C84.2831 41.9716 85.3968 41.66 86.3911 41.0369C87.392 40.4138 88.1842 39.4957 88.7675 38.2827C89.3575 37.0696 89.6525 35.5814 89.6525 33.8182Z" fill="#4078E1"/>
<path d="M71.8523 30H69.3864C69.2405 29.2907 68.9853 28.6676 68.6207 28.1307C68.2628 27.5938 67.8253 27.143 67.3082 26.7784C66.7978 26.4072 66.2311 26.1288 65.608 25.9432C64.9849 25.7576 64.3352 25.6648 63.6591 25.6648C62.4261 25.6648 61.3092 25.9763 60.3082 26.5994C59.3139 27.2225 58.5218 28.1406 57.9318 29.3537C57.3485 30.5668 57.0568 32.0549 57.0568 33.8182C57.0568 35.5814 57.3485 37.0696 57.9318 38.2827C58.5218 39.4957 59.3139 40.4138 60.3082 41.0369C61.3092 41.66 62.4261 41.9716 63.6591 41.9716C64.3352 41.9716 64.9849 41.8788 65.608 41.6932C66.2311 41.5076 66.7978 41.2325 67.3082 40.8679C67.8253 40.4967 68.2628 40.0426 68.6207 39.5057C68.9853 38.9621 69.2405 38.339 69.3864 37.6364H71.8523C71.6667 38.6771 71.3286 39.6084 70.8381 40.4304C70.3475 41.2524 69.7377 41.9517 69.0085 42.5284C68.2794 43.0985 67.4607 43.5327 66.5526 43.831C65.651 44.1293 64.6866 44.2784 63.6591 44.2784C61.9224 44.2784 60.3778 43.8542 59.0256 43.0057C57.6733 42.1572 56.6094 40.9508 55.8338 39.3864C55.0582 37.822 54.6705 35.9659 54.6705 33.8182C54.6705 31.6705 55.0582 29.8144 55.8338 28.25C56.6094 26.6856 57.6733 25.4792 59.0256 24.6307C60.3778 23.7822 61.9224 23.358 63.6591 23.358C64.6866 23.358 65.651 23.5071 66.5526 23.8054C67.4607 24.1037 68.2794 24.5412 69.0085 25.1179C69.7377 25.688 70.3475 26.384 70.8381 27.206C71.3286 28.0213 71.6667 28.9527 71.8523 30Z" fill="#4078E1"/>
<path d="M198.714 15H193.118V0.454544H198.658C200.154 0.454544 201.446 0.745737 202.535 1.32812C203.629 1.90577 204.472 2.73911 205.064 3.82812C205.66 4.9124 205.959 6.21212 205.959 7.72727C205.959 9.24242 205.663 10.5445 205.071 11.6335C204.479 12.7178 203.641 13.5511 202.557 14.1335C201.473 14.7112 200.192 15 198.714 15ZM197.067 11.6477H198.572C199.292 11.6477 199.905 11.5317 200.412 11.2997C200.923 11.0677 201.312 10.6676 201.577 10.0994C201.847 9.53125 201.982 8.74053 201.982 7.72727C201.982 6.71401 201.844 5.92329 201.57 5.35511C201.3 4.78693 200.902 4.38684 200.376 4.15483C199.856 3.92282 199.216 3.80682 198.459 3.80682H197.067V11.6477Z" fill="black"/>
<path d="M191.326 0.454544V15H188.031L182.775 7.35795H182.69V15H178.741V0.454544H182.093L187.263 8.06818H187.377V0.454544H191.326Z" fill="black"/>
<path d="M172.991 0.454544H176.94V9.77273C176.94 10.8807 176.675 11.8395 176.145 12.6491C175.619 13.4541 174.885 14.0767 173.943 14.517C173.001 14.9527 171.907 15.1705 170.662 15.1705C169.407 15.1705 168.308 14.9527 167.366 14.517C166.424 14.0767 165.69 13.4541 165.164 12.6491C164.644 11.8395 164.383 10.8807 164.383 9.77273V0.454544H168.332V9.43182C168.332 9.88163 168.431 10.2841 168.63 10.6392C168.829 10.9896 169.104 11.2642 169.454 11.4631C169.809 11.6619 170.212 11.7614 170.662 11.7614C171.116 11.7614 171.519 11.6619 171.869 11.4631C172.219 11.2642 172.494 10.9896 172.693 10.6392C172.892 10.2841 172.991 9.88163 172.991 9.43182V0.454544Z" fill="black"/>
<path d="M162.632 7.72727C162.632 9.34659 162.317 10.7126 161.688 11.8253C161.058 12.9332 160.208 13.7737 159.138 14.3466C158.068 14.9148 156.875 15.1989 155.558 15.1989C154.232 15.1989 153.035 14.9124 151.964 14.3395C150.899 13.7618 150.052 12.919 149.422 11.8111C148.797 10.6984 148.484 9.33712 148.484 7.72727C148.484 6.10795 148.797 4.74432 149.422 3.63636C150.052 2.52367 150.899 1.68324 151.964 1.11506C153.035 0.542138 154.232 0.25568 155.558 0.25568C156.875 0.25568 158.068 0.542138 159.138 1.11506C160.208 1.68324 161.058 2.52367 161.688 3.63636C162.317 4.74432 162.632 6.10795 162.632 7.72727ZM158.57 7.72727C158.57 6.85606 158.454 6.12216 158.222 5.52557C157.994 4.92424 157.656 4.4697 157.206 4.16193C156.761 3.84943 156.212 3.69318 155.558 3.69318C154.905 3.69318 154.353 3.84943 153.903 4.16193C153.458 4.4697 153.12 4.92424 152.888 5.52557C152.661 6.12216 152.547 6.85606 152.547 7.72727C152.547 8.59848 152.661 9.33475 152.888 9.93608C153.12 10.5327 153.458 10.9872 153.903 11.2997C154.353 11.6075 154.905 11.7614 155.558 11.7614C156.212 11.7614 156.761 11.6075 157.206 11.2997C157.656 10.9872 157.994 10.5327 158.222 9.93608C158.454 9.33475 158.57 8.59848 158.57 7.72727Z" fill="black"/>
<path d="M136.938 15V0.454544H147.165V3.63636H140.886V6.13636H146.54V9.31818H140.886V15H136.938Z" fill="black"/>
<path d="M128.501 15H126.079L126.099 13.4668H128.501C129.354 13.4668 130.047 13.304 130.581 12.9785C131.115 12.6465 131.509 12.1582 131.763 11.5137C132.017 10.8626 132.144 10.0586 132.144 9.10156V6.66992C132.144 5.91471 132.072 5.26367 131.929 4.7168C131.786 4.16992 131.571 3.7207 131.284 3.36914C130.998 3.01758 130.637 2.75716 130.2 2.58789C129.764 2.41211 129.253 2.32422 128.667 2.32422H126.03V0.78125H128.667C129.468 0.78125 130.191 0.908203 130.835 1.16211C131.48 1.40951 132.033 1.78385 132.495 2.28516C132.958 2.77995 133.309 3.39518 133.55 4.13086C133.797 4.86654 133.921 5.7194 133.921 6.68945V9.10156C133.921 10.0716 133.797 10.9245 133.55 11.6602C133.309 12.3958 132.954 13.0111 132.486 13.5059C132.017 14.0007 131.447 14.375 130.777 14.6289C130.113 14.8763 129.354 15 128.501 15ZM127.075 0.78125V15H125.279V0.78125H127.075Z" fill="black"/>
<path d="M123.773 0.78125V15H121.966L116.273 4.0332V15H114.476V0.78125H116.273L121.996 11.7773V0.78125H123.773Z" fill="black"/>
<path d="M109.143 2.04102L105.256 15H103.42L108 0.78125H109.152L109.143 2.04102ZM112.287 15L108.4 2.04102L108.381 0.78125H109.543L114.123 15H112.287ZM112.287 9.73633V11.2793H105.432V9.73633H112.287Z" fill="black"/>
<circle cx="2.8886" cy="20" r="1" fill="#E4E3E3"/>
<circle cx="3.8886" cy="9" r="2" fill="#E4E3E3"/>
<circle cx="9.8886" cy="3" r="2" fill="#E4E3E3"/>
<circle cx="20.8886" cy="2" r="2" fill="#E4E3E3"/>
<circle cx="34.3886" cy="1.5" r="1.5" fill="#E4E3E3"/>
<circle cx="45.8886" cy="2" r="1" fill="#E4E3E3"/>
<circle cx="45.8886" cy="13" r="1" fill="#E4E3E3"/>
<circle cx="45.8886" cy="25" r="1" fill="#E4E3E3"/>
<circle cx="45.8886" cy="36" r="1" fill="#E4E3E3"/>
<circle cx="40.3886" cy="42.5" r="1.5" fill="#E4E3E3"/>
<circle cx="16.3886" cy="18.5" r="2.5" fill="#2F2F2F"/>
<circle cx="16.3886" cy="18.5" r="2.5" fill="#2F2F2F"/>
<circle cx="16.3886" cy="18.5" r="2.5" fill="#2F2F2F"/>
<circle cx="16.3886" cy="18.5" r="2.5" fill="#2F2F2F"/>
<circle cx="39.8886" cy="19" r="3" fill="#313131"/>
<circle cx="39.8886" cy="19" r="3" fill="#313131"/>
<circle cx="39.8886" cy="19" r="3" fill="#313131"/>
<circle cx="39.8886" cy="19" r="3" fill="#313131"/>
<circle cx="39.8886" cy="31" r="3" fill="#313131"/>
<circle cx="39.8886" cy="31" r="3" fill="#313131"/>
<circle cx="39.8886" cy="31" r="3" fill="#313131"/>
<circle cx="39.8886" cy="31" r="3" fill="#313131"/>
<circle cx="28.3886" cy="18.5" r="2.5" fill="#2C71F1"/>
<circle cx="28.3886" cy="18.5" r="2.5" fill="#2C71F1"/>
<circle cx="28.3886" cy="18.5" r="2.5" fill="#2C71F1"/>
<circle cx="28.3886" cy="18.5" r="2.5" fill="#2C71F1"/>
<circle cx="11.3886" cy="35.5" r="2.5" fill="#2C71F1"/>
<circle cx="11.3886" cy="35.5" r="2.5" fill="#2C71F1"/>
<circle cx="11.3886" cy="35.5" r="2.5" fill="#2C71F1"/>
<circle cx="11.3886" cy="35.5" r="2.5" fill="#2C71F1"/>
<rect x="6.65893" y="14.0695" width="13.2802" height="4.61396" rx="2.30698" transform="rotate(-45 6.65893 14.0695)" fill="#313131"/>
<rect x="0.00563049" y="32.2735" width="14.5289" height="4.61396" rx="2.30698" transform="rotate(-45 0.00563049 32.2735)" fill="#313131"/>
<rect x="18.8886" y="13.2735" width="14.0949" height="4.61396" rx="2.30698" transform="rotate(-45 18.8886 13.2735)" fill="#313131"/>
<rect y="42.8552" width="8.28054" height="4.61396" rx="2.30698" transform="rotate(-45 0 42.8552)" fill="#E4E3E3"/>
<rect x="12.8886" y="30.3416" width="14.6252" height="4.61396" rx="2.30698" transform="rotate(-45 12.8886 30.3416)" fill="#2C71F1"/>
<rect x="30.8886" y="12.3416" width="14.6252" height="4.61396" rx="2.30698" transform="rotate(-45 30.8886 12.3416)" fill="#2C71F1"/>
<rect x="11.8886" y="43.3416" width="14.6252" height="4.61396" rx="2.30698" transform="rotate(-45 11.8886 43.3416)" fill="#313131"/>
<rect x="23.8886" y="31.3416" width="14.6252" height="4.61396" rx="2.30698" transform="rotate(-45 23.8886 31.3416)" fill="#313131"/>
<rect x="25.5352" y="42.6536" width="11.6818" height="3.23356" rx="1.61678" transform="rotate(-45 25.5352 42.6536)" fill="#D9D9D9"/>
</svg>
